# xmcd
#
# Track frame offsets: 
#        150
#        12925
#        22112
#        32912
#        48437
#        59425
#        69400
#        76775
#        84400
#        98770
#        110750
#        124520
#        133905
#        150570
#        158382
#        168882
#        178632
#        193857
#        217332
#        229507
#        246744
#        258894
#        274107
#        284094
#
# Disc length: 4112 seconds
#
# Revision: 0
# Processed by: cddbd v1.4PL0 Copyright (c) Steve Scherf et al.
# Submitted via: ExactAudioCopy v0.90b3
#
DISCID=54100e18
DTITLE=J. J. Cale - Grasshopper - Shades
DYEAR=1982
DGENRE=Blues
TTITLE0=City Girls
TTITLE1=Devil In Disguise
TTITLE2=One Step Ahead Of The Blues
TTITLE3=You Keep Me Hangin' On
TTITLE4=Downtown L.A.
TTITLE5=Can't Live Here
TTITLE6=Grasshopper
TTITLE7=Drifters Wife
TTITLE8=Don't Wait
TTITLE9=A Thing Going On
TTITLE10=Nobody But You
TTITLE11=Mississippi River
TTITLE12=Does Your Mama Like To Reggae
TTITLE13=Dr. Jive
TTITLE14=Carry On
TTITLE15=Deep Dark Dungeon
TTITLE16=Wish I Had Not Said That
TTITLE17=Pack My Jack
TTITLE18=If You Leave Her
TTITLE19=Mama Don't
TTITLE20=Runaround
TTITLE21=What Do You Expect
TTITLE22=Love Has Been Gone
TTITLE23=Cloudy Day
EXTD=
EXTT0=
EXTT1=
EXTT2=
EXTT3=
EXTT4=
EXTT5=
EXTT6=
EXTT7=
EXTT8=
EXTT9=
EXTT10=
EXTT11=
EXTT12=
EXTT13=
EXTT14=
EXTT15=
EXTT16=
EXTT17=
EXTT18=
EXTT19=
EXTT20=
EXTT21=
EXTT22=
EXTT23=
PLAYORDER=
